<svg xmlns="http://www.w3.org/2000/svg" width="400" height="200" viewBox="0 0 400 200">
<rect x="0.0" y="194.72990777338603" width="38.0" height="5.270092226613965" fill="steelblue"/>
<text x="20.0" y="195" font-size="10" text-anchor="middle">0.0</text>
<rect x="40.0" y="189.45981554677206" width="38.0" height="10.54018445322793" fill="steelblue"/>
<text x="60.0" y="195" font-size="10" text-anchor="middle">0.1</text>
<rect x="80.0" y="139.3939393939394" width="38.0" height="60.606060606060595" fill="steelblue"/>
<text x="100.0" y="195" font-size="10" text-anchor="middle">0.2</text>
<rect x="120.0" y="118.31357048748355" width="38.0" height="81.68642951251645" fill="steelblue"/>
<text x="140.0" y="195" font-size="10" text-anchor="middle">0.3</text>
<rect x="160.0" y="33.99209486166009" width="38.0" height="166.0079051383399" fill="steelblue"/>
<text x="180.0" y="195" font-size="10" text-anchor="middle">0.4</text>
<rect x="200.0" y="18.181818181818215" width="38.0" height="181.81818181818178" fill="steelblue"/>
<text x="220.0" y="195" font-size="10" text-anchor="middle">0.5</text>
<rect x="240.0" y="76.15283267457183" width="38.0" height="123.84716732542817" fill="steelblue"/>
<text x="260.0" y="195" font-size="10" text-anchor="middle">0.6</text>
<rect x="280.0" y="142.02898550724638" width="38.0" height="57.97101449275361" fill="steelblue"/>
<text x="300.0" y="195" font-size="10" text-anchor="middle">0.7</text>
<rect x="320.0" y="165.74440052700922" width="38.0" height="34.255599472990774" fill="steelblue"/>
<text x="340.0" y="195" font-size="10" text-anchor="middle">0.8</text>
<rect x="360.0" y="186.8247694334651" width="38.0" height="13.175230566534912" fill="steelblue"/>
<text x="380.0" y="195" font-size="10" text-anchor="middle">0.9</text>
</svg>
